G04 EAGLE Gerber RS-274X export*
G75*
%MOMM*%
%FSLAX34Y34*%
%LPD*%
%INTop Copper*%
%IPPOS*%
%AMOC8*
5,1,8,0,0,1.08239X$1,22.5*%
G01*
%ADD10R,1.500000X1.300000*%
%ADD11R,1.346200X0.381000*%
%ADD12R,1.900000X1.900000*%
%ADD13R,1.200000X1.200000*%
%ADD14R,1.300000X1.500000*%
%ADD15C,0.552000*%
%ADD16C,0.690000*%
%ADD17R,1.600000X2.000000*%
%ADD18R,1.400000X1.000000*%
%ADD19C,1.000000*%
%ADD20R,0.850000X0.950000*%
%ADD21R,0.850000X1.150000*%
%ADD22R,0.970000X1.150000*%
%ADD23R,0.970000X0.950000*%
%ADD24C,0.152400*%


D10*
X-558800Y219100D03*
X-558800Y238100D03*
D11*
X-433150Y164800D03*
X-433150Y171300D03*
X-433150Y177800D03*
X-433150Y184300D03*
X-433150Y190800D03*
D12*
X-406400Y138300D03*
X-406400Y165800D03*
X-406400Y189800D03*
X-406400Y217300D03*
D13*
X-662600Y292100D03*
X-683600Y292100D03*
D14*
X-549300Y266700D03*
X-568300Y266700D03*
D15*
X-445040Y296260D02*
X-438560Y296260D01*
X-445040Y296260D02*
X-445040Y302740D01*
X-438560Y302740D01*
X-438560Y296260D01*
X-438560Y301504D02*
X-445040Y301504D01*
X-425040Y296260D02*
X-418560Y296260D01*
X-425040Y296260D02*
X-425040Y302740D01*
X-418560Y302740D01*
X-418560Y296260D01*
X-418560Y301504D02*
X-425040Y301504D01*
D16*
X-427250Y327950D02*
X-436350Y327950D01*
X-436350Y336050D01*
X-427250Y336050D01*
X-427250Y327950D01*
X-427250Y334505D02*
X-436350Y334505D01*
D10*
X-685800Y238100D03*
X-685800Y219100D03*
D17*
X-519400Y317500D03*
X-547400Y317500D03*
X-636300Y165100D03*
X-608300Y165100D03*
D10*
X-482600Y282600D03*
X-482600Y301600D03*
D14*
X-600100Y381000D03*
X-619100Y381000D03*
D18*
X-646000Y342900D03*
X-624000Y352400D03*
X-624000Y333400D03*
D19*
X-1031800Y98500D03*
X-269800Y606500D03*
D20*
X-616000Y235850D03*
D21*
X-616000Y222350D03*
D22*
X-628000Y222350D03*
D23*
X-628000Y235850D03*
D24*
X-616000Y235850D02*
X-599150Y235850D01*
X-568300Y266700D01*
X-549300Y266700D02*
X-549300Y247600D01*
X-558800Y238100D01*
X-612750Y219100D02*
X-616000Y222350D01*
X-612750Y219100D02*
X-558800Y219100D01*
X-652498Y302202D02*
X-646000Y342900D01*
X-652498Y302202D02*
X-662600Y292100D01*
X-581483Y282600D02*
X-482600Y282600D01*
X-581483Y282600D02*
X-621779Y242303D01*
X-622536Y241547D01*
X-622536Y230386D01*
X-627888Y236220D02*
X-621792Y242316D01*
X-627888Y236220D02*
X-628000Y235850D01*
X-621792Y242316D02*
X-621779Y242303D01*
X-489000Y282600D02*
X-482600Y282600D01*
X-480500Y299500D02*
X-441800Y299500D01*
X-480500Y299500D02*
X-482600Y301600D01*
X-624022Y357078D02*
X-619100Y381000D01*
X-624022Y357078D02*
X-624000Y352400D01*
X-431800Y332000D02*
X-423594Y328906D01*
X-424110Y345216D01*
X-424337Y352400D01*
X-624000Y352400D01*
X-619100Y381000D02*
X-600100Y381000D01*
X-683600Y292100D02*
X-685800Y289900D01*
X-685800Y238100D01*
X-685800Y237744D02*
X-685800Y228600D01*
X-685800Y237744D02*
X-685800Y238100D01*
X-608100Y317500D02*
X-624000Y333400D01*
X-608100Y317500D02*
X-547400Y317500D01*
X-421800Y299500D02*
X-406400Y273139D01*
X-406400Y217300D01*
X-432100Y190800D02*
X-433150Y190800D01*
X-432100Y190800D02*
X-431800Y190500D01*
X-414228Y203463D02*
X-422237Y211472D01*
X-433563Y211472D01*
X-441572Y203463D01*
X-441572Y192137D01*
X-437926Y188491D01*
X-414228Y197628D02*
X-414228Y203463D01*
X-414228Y197628D02*
X-406400Y189800D01*
X-406400Y165800D01*
X-406400Y189800D02*
X-406400Y217300D01*
X-406400Y165800D02*
X-406400Y138300D01*
X-519400Y317500D02*
X-547400Y317500D01*
X-519400Y317500D02*
X-419100Y317500D01*
X-419100Y302200D01*
X-421800Y299500D01*
X-636300Y214050D02*
X-636300Y165100D01*
X-636300Y214050D02*
X-628000Y222350D01*
X-682550Y222350D01*
X-685800Y219100D01*
X-608000Y164800D02*
X-433150Y164800D01*
X-608000Y164800D02*
X-608300Y165100D01*
X-609600Y166116D02*
X-635508Y166116D01*
X-636300Y165100D01*
X-609600Y166116D02*
X-608300Y165100D01*
M02*
