G04 EAGLE Gerber RS-274X export*
G75*
%MOMM*%
%FSLAX34Y34*%
%LPD*%
%INSilkscreen Top*%
%IPPOS*%
%AMOC8*
5,1,8,0,0,1.08239X$1,22.5*%
G01*
%ADD10C,0.101600*%
%ADD11C,0.127000*%
%ADD12C,0.200000*%
%ADD13C,0.063400*%
%ADD14C,0.250000*%
%ADD15C,0.076200*%

G36*
X-261289Y73635D02*
X-261289Y73635D01*
X-261260Y73633D01*
X-260603Y73720D01*
X-260567Y73733D01*
X-260507Y73745D01*
X-259895Y73999D01*
X-259864Y74021D01*
X-259809Y74049D01*
X-259282Y74452D01*
X-259258Y74482D01*
X-259212Y74522D01*
X-258809Y75049D01*
X-258793Y75083D01*
X-258759Y75135D01*
X-258505Y75747D01*
X-258499Y75785D01*
X-258481Y75838D01*
X-258481Y75839D01*
X-258480Y75843D01*
X-258393Y76500D01*
X-258395Y76522D01*
X-258390Y76550D01*
X-258390Y81611D01*
X-258273Y82794D01*
X-257934Y83914D01*
X-257382Y84946D01*
X-256640Y85850D01*
X-255736Y86592D01*
X-254704Y87144D01*
X-253584Y87483D01*
X-252401Y87600D01*
X-247340Y87600D01*
X-247319Y87605D01*
X-247290Y87603D01*
X-246633Y87690D01*
X-246597Y87703D01*
X-246537Y87715D01*
X-245925Y87969D01*
X-245894Y87991D01*
X-245839Y88019D01*
X-245312Y88422D01*
X-245288Y88452D01*
X-245242Y88492D01*
X-244839Y89019D01*
X-244823Y89053D01*
X-244789Y89105D01*
X-244535Y89717D01*
X-244529Y89755D01*
X-244510Y89813D01*
X-244423Y90470D01*
X-244425Y90492D01*
X-244420Y90520D01*
X-244420Y98140D01*
X-244425Y98161D01*
X-244423Y98190D01*
X-244510Y98847D01*
X-244523Y98883D01*
X-244535Y98943D01*
X-244789Y99556D01*
X-244811Y99586D01*
X-244839Y99641D01*
X-245242Y100168D01*
X-245272Y100192D01*
X-245312Y100238D01*
X-245839Y100641D01*
X-245873Y100657D01*
X-245925Y100691D01*
X-246537Y100945D01*
X-246575Y100951D01*
X-246633Y100970D01*
X-247290Y101057D01*
X-247312Y101055D01*
X-247340Y101060D01*
X-254960Y101060D01*
X-254981Y101055D01*
X-255010Y101057D01*
X-255667Y100970D01*
X-255703Y100957D01*
X-255763Y100945D01*
X-256376Y100691D01*
X-256406Y100669D01*
X-256461Y100641D01*
X-256988Y100238D01*
X-257012Y100208D01*
X-257058Y100168D01*
X-257461Y99641D01*
X-257477Y99607D01*
X-257511Y99556D01*
X-257765Y98943D01*
X-257771Y98906D01*
X-257790Y98847D01*
X-257877Y98190D01*
X-257875Y98168D01*
X-257880Y98140D01*
X-257880Y93079D01*
X-257997Y91896D01*
X-258336Y90776D01*
X-258888Y89744D01*
X-259630Y88840D01*
X-260534Y88098D01*
X-261566Y87546D01*
X-262686Y87207D01*
X-263869Y87090D01*
X-268930Y87090D01*
X-268951Y87085D01*
X-268980Y87087D01*
X-269637Y87000D01*
X-269673Y86987D01*
X-269733Y86975D01*
X-270346Y86721D01*
X-270376Y86699D01*
X-270431Y86671D01*
X-270958Y86268D01*
X-270982Y86238D01*
X-271028Y86198D01*
X-271431Y85671D01*
X-271447Y85637D01*
X-271481Y85586D01*
X-271735Y84973D01*
X-271741Y84936D01*
X-271760Y84877D01*
X-271847Y84220D01*
X-271845Y84198D01*
X-271850Y84170D01*
X-271850Y76550D01*
X-271845Y76529D01*
X-271847Y76500D01*
X-271760Y75843D01*
X-271753Y75823D01*
X-271753Y75811D01*
X-271745Y75796D01*
X-271735Y75747D01*
X-271481Y75135D01*
X-271459Y75104D01*
X-271431Y75049D01*
X-271028Y74522D01*
X-271023Y74519D01*
X-271023Y74518D01*
X-271016Y74513D01*
X-270998Y74498D01*
X-270958Y74452D01*
X-270431Y74049D01*
X-270397Y74033D01*
X-270346Y73999D01*
X-269733Y73745D01*
X-269696Y73739D01*
X-269637Y73720D01*
X-268980Y73633D01*
X-268958Y73635D01*
X-268930Y73630D01*
X-261310Y73630D01*
X-261289Y73635D01*
G37*
G36*
X-275259Y87605D02*
X-275259Y87605D01*
X-275230Y87603D01*
X-274573Y87690D01*
X-274537Y87703D01*
X-274477Y87715D01*
X-273865Y87969D01*
X-273834Y87991D01*
X-273779Y88019D01*
X-273252Y88422D01*
X-273228Y88452D01*
X-273182Y88492D01*
X-272779Y89019D01*
X-272763Y89053D01*
X-272729Y89105D01*
X-272475Y89717D01*
X-272469Y89755D01*
X-272451Y89807D01*
X-272451Y89809D01*
X-272450Y89813D01*
X-272363Y90470D01*
X-272365Y90492D01*
X-272360Y90520D01*
X-272360Y98140D01*
X-272365Y98161D01*
X-272363Y98190D01*
X-272450Y98847D01*
X-272463Y98883D01*
X-272475Y98943D01*
X-272729Y99556D01*
X-272751Y99586D01*
X-272779Y99641D01*
X-273182Y100168D01*
X-273212Y100192D01*
X-273252Y100238D01*
X-273779Y100641D01*
X-273813Y100657D01*
X-273865Y100691D01*
X-274477Y100945D01*
X-274515Y100951D01*
X-274573Y100970D01*
X-275230Y101057D01*
X-275252Y101055D01*
X-275280Y101060D01*
X-282900Y101060D01*
X-282921Y101055D01*
X-282950Y101057D01*
X-283607Y100970D01*
X-283643Y100957D01*
X-283703Y100945D01*
X-284316Y100691D01*
X-284346Y100669D01*
X-284401Y100641D01*
X-284928Y100238D01*
X-284952Y100208D01*
X-284998Y100168D01*
X-285401Y99641D01*
X-285417Y99607D01*
X-285451Y99556D01*
X-285705Y98943D01*
X-285711Y98906D01*
X-285730Y98847D01*
X-285817Y98190D01*
X-285815Y98168D01*
X-285820Y98140D01*
X-285820Y90520D01*
X-285815Y90499D01*
X-285817Y90470D01*
X-285730Y89813D01*
X-285723Y89793D01*
X-285723Y89781D01*
X-285715Y89766D01*
X-285705Y89717D01*
X-285451Y89105D01*
X-285429Y89074D01*
X-285401Y89019D01*
X-284998Y88492D01*
X-284993Y88489D01*
X-284993Y88488D01*
X-284986Y88483D01*
X-284968Y88468D01*
X-284928Y88422D01*
X-284401Y88019D01*
X-284367Y88003D01*
X-284316Y87969D01*
X-283703Y87715D01*
X-283666Y87709D01*
X-283607Y87690D01*
X-282950Y87603D01*
X-282928Y87605D01*
X-282900Y87600D01*
X-275280Y87600D01*
X-275259Y87605D01*
G37*
D10*
X-572008Y221601D02*
X-572008Y219004D01*
X-572010Y218905D01*
X-572016Y218805D01*
X-572025Y218706D01*
X-572038Y218608D01*
X-572055Y218510D01*
X-572076Y218412D01*
X-572101Y218316D01*
X-572129Y218221D01*
X-572161Y218127D01*
X-572196Y218034D01*
X-572235Y217942D01*
X-572278Y217852D01*
X-572323Y217764D01*
X-572373Y217677D01*
X-572425Y217593D01*
X-572481Y217510D01*
X-572539Y217430D01*
X-572601Y217352D01*
X-572666Y217277D01*
X-572734Y217204D01*
X-572804Y217134D01*
X-572877Y217066D01*
X-572952Y217001D01*
X-573030Y216939D01*
X-573110Y216881D01*
X-573193Y216825D01*
X-573277Y216773D01*
X-573364Y216723D01*
X-573452Y216678D01*
X-573542Y216635D01*
X-573634Y216596D01*
X-573727Y216561D01*
X-573821Y216529D01*
X-573916Y216501D01*
X-574012Y216476D01*
X-574110Y216455D01*
X-574208Y216438D01*
X-574306Y216425D01*
X-574405Y216416D01*
X-574505Y216410D01*
X-574604Y216408D01*
X-581096Y216408D01*
X-581195Y216410D01*
X-581295Y216416D01*
X-581394Y216425D01*
X-581492Y216438D01*
X-581590Y216455D01*
X-581688Y216476D01*
X-581784Y216501D01*
X-581879Y216529D01*
X-581973Y216561D01*
X-582066Y216596D01*
X-582158Y216635D01*
X-582248Y216678D01*
X-582336Y216723D01*
X-582423Y216773D01*
X-582507Y216825D01*
X-582590Y216881D01*
X-582670Y216939D01*
X-582748Y217001D01*
X-582823Y217066D01*
X-582896Y217134D01*
X-582966Y217204D01*
X-583034Y217277D01*
X-583099Y217352D01*
X-583161Y217430D01*
X-583219Y217510D01*
X-583275Y217593D01*
X-583327Y217677D01*
X-583377Y217764D01*
X-583422Y217852D01*
X-583465Y217942D01*
X-583504Y218034D01*
X-583539Y218126D01*
X-583571Y218221D01*
X-583599Y218316D01*
X-583624Y218412D01*
X-583645Y218510D01*
X-583662Y218608D01*
X-583675Y218706D01*
X-583684Y218805D01*
X-583690Y218905D01*
X-583692Y219004D01*
X-583692Y221601D01*
X-581096Y225966D02*
X-583692Y229212D01*
X-572008Y229212D01*
X-572008Y232457D02*
X-572008Y225966D01*
D11*
X-393700Y137300D02*
X-391900Y137300D01*
X-391900Y218300D01*
X-393700Y218300D01*
X-419100Y137300D02*
X-434900Y137300D01*
X-434900Y159600D01*
X-434900Y196000D02*
X-434900Y218300D01*
X-419100Y218300D01*
D12*
X-440400Y156800D02*
X-440398Y156863D01*
X-440392Y156925D01*
X-440382Y156987D01*
X-440369Y157049D01*
X-440351Y157109D01*
X-440330Y157168D01*
X-440305Y157226D01*
X-440276Y157282D01*
X-440244Y157336D01*
X-440209Y157388D01*
X-440171Y157437D01*
X-440129Y157485D01*
X-440085Y157529D01*
X-440037Y157571D01*
X-439988Y157609D01*
X-439936Y157644D01*
X-439882Y157676D01*
X-439826Y157705D01*
X-439768Y157730D01*
X-439709Y157751D01*
X-439649Y157769D01*
X-439587Y157782D01*
X-439525Y157792D01*
X-439463Y157798D01*
X-439400Y157800D01*
X-439337Y157798D01*
X-439275Y157792D01*
X-439213Y157782D01*
X-439151Y157769D01*
X-439091Y157751D01*
X-439032Y157730D01*
X-438974Y157705D01*
X-438918Y157676D01*
X-438864Y157644D01*
X-438812Y157609D01*
X-438763Y157571D01*
X-438715Y157529D01*
X-438671Y157485D01*
X-438629Y157437D01*
X-438591Y157388D01*
X-438556Y157336D01*
X-438524Y157282D01*
X-438495Y157226D01*
X-438470Y157168D01*
X-438449Y157109D01*
X-438431Y157049D01*
X-438418Y156987D01*
X-438408Y156925D01*
X-438402Y156863D01*
X-438400Y156800D01*
X-438402Y156737D01*
X-438408Y156675D01*
X-438418Y156613D01*
X-438431Y156551D01*
X-438449Y156491D01*
X-438470Y156432D01*
X-438495Y156374D01*
X-438524Y156318D01*
X-438556Y156264D01*
X-438591Y156212D01*
X-438629Y156163D01*
X-438671Y156115D01*
X-438715Y156071D01*
X-438763Y156029D01*
X-438812Y155991D01*
X-438864Y155956D01*
X-438918Y155924D01*
X-438974Y155895D01*
X-439032Y155870D01*
X-439091Y155849D01*
X-439151Y155831D01*
X-439213Y155818D01*
X-439275Y155808D01*
X-439337Y155802D01*
X-439400Y155800D01*
X-439463Y155802D01*
X-439525Y155808D01*
X-439587Y155818D01*
X-439649Y155831D01*
X-439709Y155849D01*
X-439768Y155870D01*
X-439826Y155895D01*
X-439882Y155924D01*
X-439936Y155956D01*
X-439988Y155991D01*
X-440037Y156029D01*
X-440085Y156071D01*
X-440129Y156115D01*
X-440171Y156163D01*
X-440209Y156212D01*
X-440244Y156264D01*
X-440276Y156318D01*
X-440305Y156374D01*
X-440330Y156432D01*
X-440351Y156491D01*
X-440369Y156551D01*
X-440382Y156613D01*
X-440392Y156675D01*
X-440398Y156737D01*
X-440400Y156800D01*
D10*
X-460504Y142203D02*
X-469592Y142203D01*
X-460504Y142202D02*
X-460405Y142200D01*
X-460305Y142194D01*
X-460206Y142185D01*
X-460108Y142172D01*
X-460010Y142155D01*
X-459912Y142134D01*
X-459816Y142109D01*
X-459721Y142081D01*
X-459627Y142049D01*
X-459534Y142014D01*
X-459442Y141975D01*
X-459352Y141932D01*
X-459264Y141887D01*
X-459177Y141837D01*
X-459093Y141785D01*
X-459010Y141729D01*
X-458930Y141671D01*
X-458852Y141609D01*
X-458777Y141544D01*
X-458704Y141476D01*
X-458634Y141406D01*
X-458566Y141333D01*
X-458501Y141258D01*
X-458439Y141180D01*
X-458381Y141100D01*
X-458325Y141017D01*
X-458273Y140933D01*
X-458223Y140846D01*
X-458178Y140758D01*
X-458135Y140668D01*
X-458096Y140576D01*
X-458061Y140483D01*
X-458029Y140389D01*
X-458001Y140294D01*
X-457976Y140198D01*
X-457955Y140100D01*
X-457938Y140002D01*
X-457925Y139904D01*
X-457916Y139805D01*
X-457910Y139705D01*
X-457908Y139606D01*
X-457908Y138308D01*
X-466996Y147476D02*
X-469592Y150722D01*
X-457908Y150722D01*
X-457908Y153967D02*
X-457908Y147476D01*
D13*
X-671350Y292350D02*
X-673100Y290600D01*
X-674600Y292100D01*
X-672850Y293850D01*
X-671350Y292350D01*
D14*
X-670350Y288100D03*
D10*
X-696699Y281592D02*
X-696699Y269908D01*
X-691507Y269908D01*
X-686793Y269908D02*
X-681601Y269908D01*
X-686793Y269908D02*
X-686793Y281592D01*
X-681601Y281592D01*
X-682899Y276399D02*
X-686793Y276399D01*
X-676910Y281592D02*
X-676910Y269908D01*
X-676910Y281592D02*
X-673665Y281592D01*
X-673552Y281590D01*
X-673439Y281584D01*
X-673326Y281574D01*
X-673213Y281560D01*
X-673101Y281543D01*
X-672990Y281521D01*
X-672880Y281496D01*
X-672770Y281466D01*
X-672662Y281433D01*
X-672555Y281396D01*
X-672449Y281356D01*
X-672345Y281311D01*
X-672242Y281263D01*
X-672141Y281212D01*
X-672042Y281157D01*
X-671945Y281099D01*
X-671850Y281037D01*
X-671757Y280972D01*
X-671667Y280904D01*
X-671579Y280833D01*
X-671493Y280758D01*
X-671410Y280681D01*
X-671330Y280601D01*
X-671253Y280518D01*
X-671178Y280432D01*
X-671107Y280344D01*
X-671039Y280254D01*
X-670974Y280161D01*
X-670912Y280066D01*
X-670854Y279969D01*
X-670799Y279870D01*
X-670748Y279769D01*
X-670700Y279666D01*
X-670655Y279562D01*
X-670615Y279456D01*
X-670578Y279349D01*
X-670545Y279241D01*
X-670515Y279131D01*
X-670490Y279021D01*
X-670468Y278910D01*
X-670451Y278798D01*
X-670437Y278685D01*
X-670427Y278572D01*
X-670421Y278459D01*
X-670419Y278346D01*
X-670419Y273154D01*
X-670421Y273041D01*
X-670427Y272928D01*
X-670437Y272815D01*
X-670451Y272702D01*
X-670468Y272590D01*
X-670490Y272479D01*
X-670515Y272369D01*
X-670545Y272259D01*
X-670578Y272151D01*
X-670615Y272044D01*
X-670655Y271938D01*
X-670700Y271834D01*
X-670748Y271731D01*
X-670799Y271630D01*
X-670854Y271531D01*
X-670912Y271434D01*
X-670974Y271339D01*
X-671039Y271246D01*
X-671107Y271156D01*
X-671178Y271068D01*
X-671253Y270982D01*
X-671330Y270899D01*
X-671410Y270819D01*
X-671493Y270742D01*
X-671579Y270667D01*
X-671667Y270596D01*
X-671757Y270528D01*
X-671850Y270463D01*
X-671945Y270401D01*
X-672042Y270343D01*
X-672141Y270288D01*
X-672242Y270237D01*
X-672345Y270189D01*
X-672449Y270144D01*
X-672555Y270104D01*
X-672662Y270067D01*
X-672770Y270034D01*
X-672880Y270004D01*
X-672990Y269979D01*
X-673101Y269957D01*
X-673213Y269940D01*
X-673326Y269926D01*
X-673439Y269916D01*
X-673552Y269910D01*
X-673665Y269908D01*
X-676910Y269908D01*
X-665099Y278996D02*
X-661854Y281592D01*
X-661854Y269908D01*
X-665099Y269908D02*
X-658608Y269908D01*
X-570805Y253492D02*
X-570805Y241808D01*
X-570805Y253492D02*
X-567560Y253492D01*
X-567447Y253490D01*
X-567334Y253484D01*
X-567221Y253474D01*
X-567108Y253460D01*
X-566996Y253443D01*
X-566885Y253421D01*
X-566775Y253396D01*
X-566665Y253366D01*
X-566557Y253333D01*
X-566450Y253296D01*
X-566344Y253256D01*
X-566240Y253211D01*
X-566137Y253163D01*
X-566036Y253112D01*
X-565937Y253057D01*
X-565840Y252999D01*
X-565745Y252937D01*
X-565652Y252872D01*
X-565562Y252804D01*
X-565474Y252733D01*
X-565388Y252658D01*
X-565305Y252581D01*
X-565225Y252501D01*
X-565148Y252418D01*
X-565073Y252332D01*
X-565002Y252244D01*
X-564934Y252154D01*
X-564869Y252061D01*
X-564807Y251966D01*
X-564749Y251869D01*
X-564694Y251770D01*
X-564643Y251669D01*
X-564595Y251566D01*
X-564550Y251462D01*
X-564510Y251356D01*
X-564473Y251249D01*
X-564440Y251141D01*
X-564410Y251031D01*
X-564385Y250921D01*
X-564363Y250810D01*
X-564346Y250698D01*
X-564332Y250585D01*
X-564322Y250472D01*
X-564316Y250359D01*
X-564314Y250246D01*
X-564316Y250133D01*
X-564322Y250020D01*
X-564332Y249907D01*
X-564346Y249794D01*
X-564363Y249682D01*
X-564385Y249571D01*
X-564410Y249461D01*
X-564440Y249351D01*
X-564473Y249243D01*
X-564510Y249136D01*
X-564550Y249030D01*
X-564595Y248926D01*
X-564643Y248823D01*
X-564694Y248722D01*
X-564749Y248623D01*
X-564807Y248526D01*
X-564869Y248431D01*
X-564934Y248338D01*
X-565002Y248248D01*
X-565073Y248160D01*
X-565148Y248074D01*
X-565225Y247991D01*
X-565305Y247911D01*
X-565388Y247834D01*
X-565474Y247759D01*
X-565562Y247688D01*
X-565652Y247620D01*
X-565745Y247555D01*
X-565840Y247493D01*
X-565937Y247435D01*
X-566036Y247380D01*
X-566137Y247329D01*
X-566240Y247281D01*
X-566344Y247236D01*
X-566450Y247196D01*
X-566557Y247159D01*
X-566665Y247126D01*
X-566775Y247096D01*
X-566885Y247071D01*
X-566996Y247049D01*
X-567108Y247032D01*
X-567221Y247018D01*
X-567334Y247008D01*
X-567447Y247002D01*
X-567560Y247000D01*
X-567560Y247001D02*
X-570805Y247001D01*
X-566911Y247001D02*
X-564314Y241808D01*
X-559449Y250896D02*
X-556204Y253492D01*
X-556204Y241808D01*
X-559449Y241808D02*
X-552958Y241808D01*
D11*
X-446800Y336500D02*
X-442300Y336500D01*
X-446800Y336500D02*
X-446800Y298500D01*
X-421600Y336500D02*
X-416800Y336500D01*
X-416800Y298500D01*
X-442013Y288830D02*
X-442011Y288878D01*
X-442005Y288926D01*
X-441995Y288973D01*
X-441981Y289019D01*
X-441964Y289064D01*
X-441943Y289107D01*
X-441918Y289149D01*
X-441890Y289188D01*
X-441859Y289225D01*
X-441825Y289259D01*
X-441788Y289290D01*
X-441749Y289318D01*
X-441707Y289343D01*
X-441664Y289364D01*
X-441619Y289381D01*
X-441573Y289395D01*
X-441526Y289405D01*
X-441478Y289411D01*
X-441430Y289413D01*
X-441382Y289411D01*
X-441334Y289405D01*
X-441287Y289395D01*
X-441241Y289381D01*
X-441196Y289364D01*
X-441153Y289343D01*
X-441111Y289318D01*
X-441072Y289290D01*
X-441035Y289259D01*
X-441001Y289225D01*
X-440970Y289188D01*
X-440942Y289149D01*
X-440917Y289107D01*
X-440896Y289064D01*
X-440879Y289019D01*
X-440865Y288973D01*
X-440855Y288926D01*
X-440849Y288878D01*
X-440847Y288830D01*
X-440849Y288782D01*
X-440855Y288734D01*
X-440865Y288687D01*
X-440879Y288641D01*
X-440896Y288596D01*
X-440917Y288553D01*
X-440942Y288511D01*
X-440970Y288472D01*
X-441001Y288435D01*
X-441035Y288401D01*
X-441072Y288370D01*
X-441111Y288342D01*
X-441153Y288317D01*
X-441196Y288296D01*
X-441241Y288279D01*
X-441287Y288265D01*
X-441334Y288255D01*
X-441382Y288249D01*
X-441430Y288247D01*
X-441478Y288249D01*
X-441526Y288255D01*
X-441573Y288265D01*
X-441619Y288279D01*
X-441664Y288296D01*
X-441707Y288317D01*
X-441749Y288342D01*
X-441788Y288370D01*
X-441825Y288401D01*
X-441859Y288435D01*
X-441890Y288472D01*
X-441918Y288511D01*
X-441943Y288553D01*
X-441964Y288596D01*
X-441981Y288641D01*
X-441995Y288687D01*
X-442005Y288734D01*
X-442011Y288782D01*
X-442013Y288830D01*
X-456165Y346035D02*
X-456165Y357465D01*
X-452990Y357465D01*
X-452879Y357463D01*
X-452769Y357457D01*
X-452658Y357448D01*
X-452548Y357434D01*
X-452439Y357417D01*
X-452330Y357396D01*
X-452222Y357371D01*
X-452115Y357342D01*
X-452009Y357310D01*
X-451904Y357274D01*
X-451801Y357234D01*
X-451699Y357191D01*
X-451598Y357144D01*
X-451499Y357093D01*
X-451402Y357040D01*
X-451308Y356983D01*
X-451215Y356922D01*
X-451124Y356859D01*
X-451035Y356792D01*
X-450949Y356722D01*
X-450866Y356649D01*
X-450784Y356574D01*
X-450706Y356496D01*
X-450631Y356414D01*
X-450558Y356331D01*
X-450488Y356245D01*
X-450421Y356156D01*
X-450358Y356065D01*
X-450297Y355972D01*
X-450240Y355877D01*
X-450187Y355781D01*
X-450136Y355682D01*
X-450089Y355581D01*
X-450046Y355479D01*
X-450006Y355376D01*
X-449970Y355271D01*
X-449938Y355165D01*
X-449909Y355058D01*
X-449884Y354950D01*
X-449863Y354841D01*
X-449846Y354732D01*
X-449832Y354622D01*
X-449823Y354511D01*
X-449817Y354401D01*
X-449815Y354290D01*
X-449817Y354179D01*
X-449823Y354069D01*
X-449832Y353958D01*
X-449846Y353848D01*
X-449863Y353739D01*
X-449884Y353630D01*
X-449909Y353522D01*
X-449938Y353415D01*
X-449970Y353309D01*
X-450006Y353204D01*
X-450046Y353101D01*
X-450089Y352999D01*
X-450136Y352898D01*
X-450187Y352799D01*
X-450240Y352702D01*
X-450297Y352608D01*
X-450358Y352515D01*
X-450421Y352424D01*
X-450488Y352335D01*
X-450558Y352249D01*
X-450631Y352166D01*
X-450706Y352084D01*
X-450784Y352006D01*
X-450866Y351931D01*
X-450949Y351858D01*
X-451035Y351788D01*
X-451124Y351721D01*
X-451215Y351658D01*
X-451308Y351597D01*
X-451403Y351540D01*
X-451499Y351487D01*
X-451598Y351436D01*
X-451699Y351389D01*
X-451801Y351346D01*
X-451904Y351306D01*
X-452009Y351270D01*
X-452115Y351238D01*
X-452222Y351209D01*
X-452330Y351184D01*
X-452439Y351163D01*
X-452548Y351146D01*
X-452658Y351132D01*
X-452769Y351123D01*
X-452879Y351117D01*
X-452990Y351115D01*
X-456165Y351115D01*
X-452355Y351115D02*
X-449815Y346035D01*
X-438467Y354608D02*
X-438469Y354712D01*
X-438475Y354817D01*
X-438484Y354921D01*
X-438497Y355024D01*
X-438515Y355127D01*
X-438535Y355229D01*
X-438560Y355331D01*
X-438588Y355431D01*
X-438620Y355531D01*
X-438656Y355629D01*
X-438695Y355726D01*
X-438737Y355821D01*
X-438783Y355915D01*
X-438833Y356007D01*
X-438885Y356097D01*
X-438941Y356185D01*
X-439001Y356271D01*
X-439063Y356355D01*
X-439128Y356436D01*
X-439196Y356515D01*
X-439268Y356592D01*
X-439341Y356665D01*
X-439418Y356737D01*
X-439497Y356805D01*
X-439578Y356870D01*
X-439662Y356932D01*
X-439748Y356992D01*
X-439836Y357048D01*
X-439926Y357100D01*
X-440018Y357150D01*
X-440112Y357196D01*
X-440207Y357238D01*
X-440304Y357277D01*
X-440402Y357313D01*
X-440502Y357345D01*
X-440602Y357373D01*
X-440704Y357398D01*
X-440806Y357418D01*
X-440909Y357436D01*
X-441012Y357449D01*
X-441116Y357458D01*
X-441221Y357464D01*
X-441325Y357466D01*
X-441325Y357465D02*
X-441443Y357463D01*
X-441562Y357457D01*
X-441680Y357448D01*
X-441797Y357435D01*
X-441914Y357417D01*
X-442031Y357397D01*
X-442147Y357372D01*
X-442262Y357344D01*
X-442375Y357311D01*
X-442488Y357276D01*
X-442600Y357236D01*
X-442710Y357194D01*
X-442819Y357147D01*
X-442927Y357097D01*
X-443032Y357044D01*
X-443136Y356987D01*
X-443238Y356927D01*
X-443338Y356864D01*
X-443436Y356797D01*
X-443532Y356728D01*
X-443625Y356655D01*
X-443716Y356579D01*
X-443805Y356501D01*
X-443891Y356419D01*
X-443974Y356335D01*
X-444055Y356249D01*
X-444132Y356159D01*
X-444207Y356068D01*
X-444279Y355974D01*
X-444348Y355877D01*
X-444413Y355779D01*
X-444476Y355678D01*
X-444535Y355575D01*
X-444591Y355471D01*
X-444643Y355365D01*
X-444692Y355257D01*
X-444737Y355148D01*
X-444779Y355037D01*
X-444817Y354925D01*
X-439420Y352386D02*
X-439344Y352461D01*
X-439269Y352540D01*
X-439198Y352621D01*
X-439129Y352705D01*
X-439064Y352791D01*
X-439002Y352879D01*
X-438942Y352969D01*
X-438886Y353061D01*
X-438833Y353156D01*
X-438784Y353252D01*
X-438738Y353350D01*
X-438695Y353449D01*
X-438656Y353550D01*
X-438621Y353652D01*
X-438589Y353755D01*
X-438561Y353859D01*
X-438536Y353964D01*
X-438515Y354071D01*
X-438498Y354177D01*
X-438485Y354284D01*
X-438476Y354392D01*
X-438470Y354500D01*
X-438468Y354608D01*
X-439420Y352385D02*
X-444818Y346035D01*
X-438468Y346035D01*
D10*
X-660908Y216595D02*
X-672592Y216595D01*
X-672592Y219840D01*
X-672590Y219953D01*
X-672584Y220066D01*
X-672574Y220179D01*
X-672560Y220292D01*
X-672543Y220404D01*
X-672521Y220515D01*
X-672496Y220625D01*
X-672466Y220735D01*
X-672433Y220843D01*
X-672396Y220950D01*
X-672356Y221056D01*
X-672311Y221160D01*
X-672263Y221263D01*
X-672212Y221364D01*
X-672157Y221463D01*
X-672099Y221560D01*
X-672037Y221655D01*
X-671972Y221748D01*
X-671904Y221838D01*
X-671833Y221926D01*
X-671758Y222012D01*
X-671681Y222095D01*
X-671601Y222175D01*
X-671518Y222252D01*
X-671432Y222327D01*
X-671344Y222398D01*
X-671254Y222466D01*
X-671161Y222531D01*
X-671066Y222593D01*
X-670969Y222651D01*
X-670870Y222706D01*
X-670769Y222757D01*
X-670666Y222805D01*
X-670562Y222850D01*
X-670456Y222890D01*
X-670349Y222927D01*
X-670241Y222960D01*
X-670131Y222990D01*
X-670021Y223015D01*
X-669910Y223037D01*
X-669798Y223054D01*
X-669685Y223068D01*
X-669572Y223078D01*
X-669459Y223084D01*
X-669346Y223086D01*
X-669233Y223084D01*
X-669120Y223078D01*
X-669007Y223068D01*
X-668894Y223054D01*
X-668782Y223037D01*
X-668671Y223015D01*
X-668561Y222990D01*
X-668451Y222960D01*
X-668343Y222927D01*
X-668236Y222890D01*
X-668130Y222850D01*
X-668026Y222805D01*
X-667923Y222757D01*
X-667822Y222706D01*
X-667723Y222651D01*
X-667626Y222593D01*
X-667531Y222531D01*
X-667438Y222466D01*
X-667348Y222398D01*
X-667260Y222327D01*
X-667174Y222252D01*
X-667091Y222175D01*
X-667011Y222095D01*
X-666934Y222012D01*
X-666859Y221926D01*
X-666788Y221838D01*
X-666720Y221748D01*
X-666655Y221655D01*
X-666593Y221560D01*
X-666535Y221463D01*
X-666480Y221364D01*
X-666429Y221263D01*
X-666381Y221160D01*
X-666336Y221056D01*
X-666296Y220950D01*
X-666259Y220843D01*
X-666226Y220735D01*
X-666196Y220625D01*
X-666171Y220515D01*
X-666149Y220404D01*
X-666132Y220292D01*
X-666118Y220179D01*
X-666108Y220066D01*
X-666102Y219953D01*
X-666100Y219840D01*
X-666101Y219840D02*
X-666101Y216595D01*
X-666101Y220489D02*
X-660908Y223086D01*
X-660908Y227951D02*
X-660908Y231196D01*
X-660910Y231309D01*
X-660916Y231422D01*
X-660926Y231535D01*
X-660940Y231648D01*
X-660957Y231760D01*
X-660979Y231871D01*
X-661004Y231981D01*
X-661034Y232091D01*
X-661067Y232199D01*
X-661104Y232306D01*
X-661144Y232412D01*
X-661189Y232516D01*
X-661237Y232619D01*
X-661288Y232720D01*
X-661343Y232819D01*
X-661401Y232916D01*
X-661463Y233011D01*
X-661528Y233104D01*
X-661596Y233194D01*
X-661667Y233282D01*
X-661742Y233368D01*
X-661819Y233451D01*
X-661899Y233531D01*
X-661982Y233608D01*
X-662068Y233683D01*
X-662156Y233754D01*
X-662246Y233822D01*
X-662339Y233887D01*
X-662434Y233949D01*
X-662531Y234007D01*
X-662630Y234062D01*
X-662731Y234113D01*
X-662834Y234161D01*
X-662938Y234206D01*
X-663044Y234246D01*
X-663151Y234283D01*
X-663259Y234316D01*
X-663369Y234346D01*
X-663479Y234371D01*
X-663590Y234393D01*
X-663702Y234410D01*
X-663815Y234424D01*
X-663928Y234434D01*
X-664041Y234440D01*
X-664154Y234442D01*
X-664267Y234440D01*
X-664380Y234434D01*
X-664493Y234424D01*
X-664606Y234410D01*
X-664718Y234393D01*
X-664829Y234371D01*
X-664939Y234346D01*
X-665049Y234316D01*
X-665157Y234283D01*
X-665264Y234246D01*
X-665370Y234206D01*
X-665474Y234161D01*
X-665577Y234113D01*
X-665678Y234062D01*
X-665777Y234007D01*
X-665874Y233949D01*
X-665969Y233887D01*
X-666062Y233822D01*
X-666152Y233754D01*
X-666240Y233683D01*
X-666326Y233608D01*
X-666409Y233531D01*
X-666489Y233451D01*
X-666566Y233368D01*
X-666641Y233282D01*
X-666712Y233194D01*
X-666780Y233104D01*
X-666845Y233011D01*
X-666907Y232916D01*
X-666965Y232819D01*
X-667020Y232720D01*
X-667071Y232619D01*
X-667119Y232516D01*
X-667164Y232412D01*
X-667204Y232306D01*
X-667241Y232199D01*
X-667274Y232091D01*
X-667304Y231981D01*
X-667329Y231871D01*
X-667351Y231760D01*
X-667368Y231648D01*
X-667382Y231535D01*
X-667392Y231422D01*
X-667398Y231309D01*
X-667400Y231196D01*
X-672592Y231846D02*
X-672592Y227951D01*
X-672592Y231846D02*
X-672590Y231947D01*
X-672584Y232047D01*
X-672574Y232147D01*
X-672561Y232247D01*
X-672543Y232346D01*
X-672522Y232445D01*
X-672497Y232542D01*
X-672468Y232639D01*
X-672435Y232734D01*
X-672399Y232828D01*
X-672359Y232920D01*
X-672316Y233011D01*
X-672269Y233100D01*
X-672219Y233187D01*
X-672165Y233273D01*
X-672108Y233356D01*
X-672048Y233436D01*
X-671985Y233515D01*
X-671918Y233591D01*
X-671849Y233664D01*
X-671777Y233734D01*
X-671703Y233802D01*
X-671626Y233867D01*
X-671546Y233928D01*
X-671464Y233987D01*
X-671380Y234042D01*
X-671294Y234094D01*
X-671206Y234143D01*
X-671116Y234188D01*
X-671024Y234230D01*
X-670931Y234268D01*
X-670836Y234302D01*
X-670741Y234333D01*
X-670644Y234360D01*
X-670546Y234383D01*
X-670447Y234403D01*
X-670347Y234418D01*
X-670247Y234430D01*
X-670147Y234438D01*
X-670046Y234442D01*
X-669946Y234442D01*
X-669845Y234438D01*
X-669745Y234430D01*
X-669645Y234418D01*
X-669545Y234403D01*
X-669446Y234383D01*
X-669348Y234360D01*
X-669251Y234333D01*
X-669156Y234302D01*
X-669061Y234268D01*
X-668968Y234230D01*
X-668876Y234188D01*
X-668786Y234143D01*
X-668698Y234094D01*
X-668612Y234042D01*
X-668528Y233987D01*
X-668446Y233928D01*
X-668366Y233867D01*
X-668289Y233802D01*
X-668215Y233734D01*
X-668143Y233664D01*
X-668074Y233591D01*
X-668007Y233515D01*
X-667944Y233436D01*
X-667884Y233356D01*
X-667827Y233273D01*
X-667773Y233187D01*
X-667723Y233100D01*
X-667676Y233011D01*
X-667633Y232920D01*
X-667593Y232828D01*
X-667557Y232734D01*
X-667524Y232639D01*
X-667495Y232542D01*
X-667470Y232445D01*
X-667449Y232346D01*
X-667431Y232247D01*
X-667418Y232147D01*
X-667408Y232047D01*
X-667402Y231947D01*
X-667400Y231846D01*
X-667399Y231846D02*
X-667399Y229249D01*
X-539055Y292608D02*
X-539055Y304292D01*
X-535810Y304292D01*
X-535697Y304290D01*
X-535584Y304284D01*
X-535471Y304274D01*
X-535358Y304260D01*
X-535246Y304243D01*
X-535135Y304221D01*
X-535025Y304196D01*
X-534915Y304166D01*
X-534807Y304133D01*
X-534700Y304096D01*
X-534594Y304056D01*
X-534490Y304011D01*
X-534387Y303963D01*
X-534286Y303912D01*
X-534187Y303857D01*
X-534090Y303799D01*
X-533995Y303737D01*
X-533902Y303672D01*
X-533812Y303604D01*
X-533724Y303533D01*
X-533638Y303458D01*
X-533555Y303381D01*
X-533475Y303301D01*
X-533398Y303218D01*
X-533323Y303132D01*
X-533252Y303044D01*
X-533184Y302954D01*
X-533119Y302861D01*
X-533057Y302766D01*
X-532999Y302669D01*
X-532944Y302570D01*
X-532893Y302469D01*
X-532845Y302366D01*
X-532800Y302262D01*
X-532760Y302156D01*
X-532723Y302049D01*
X-532690Y301941D01*
X-532660Y301831D01*
X-532635Y301721D01*
X-532613Y301610D01*
X-532596Y301498D01*
X-532582Y301385D01*
X-532572Y301272D01*
X-532566Y301159D01*
X-532564Y301046D01*
X-532566Y300933D01*
X-532572Y300820D01*
X-532582Y300707D01*
X-532596Y300594D01*
X-532613Y300482D01*
X-532635Y300371D01*
X-532660Y300261D01*
X-532690Y300151D01*
X-532723Y300043D01*
X-532760Y299936D01*
X-532800Y299830D01*
X-532845Y299726D01*
X-532893Y299623D01*
X-532944Y299522D01*
X-532999Y299423D01*
X-533057Y299326D01*
X-533119Y299231D01*
X-533184Y299138D01*
X-533252Y299048D01*
X-533323Y298960D01*
X-533398Y298874D01*
X-533475Y298791D01*
X-533555Y298711D01*
X-533638Y298634D01*
X-533724Y298559D01*
X-533812Y298488D01*
X-533902Y298420D01*
X-533995Y298355D01*
X-534090Y298293D01*
X-534187Y298235D01*
X-534286Y298180D01*
X-534387Y298129D01*
X-534490Y298081D01*
X-534594Y298036D01*
X-534700Y297996D01*
X-534807Y297959D01*
X-534915Y297926D01*
X-535025Y297896D01*
X-535135Y297871D01*
X-535246Y297849D01*
X-535358Y297832D01*
X-535471Y297818D01*
X-535584Y297808D01*
X-535697Y297802D01*
X-535810Y297800D01*
X-535810Y297801D02*
X-539055Y297801D01*
X-535161Y297801D02*
X-532564Y292608D01*
X-527699Y295204D02*
X-525103Y304292D01*
X-527699Y295204D02*
X-521208Y295204D01*
X-523155Y297801D02*
X-523155Y292608D01*
X-634492Y189992D02*
X-634492Y178308D01*
X-634492Y189992D02*
X-631246Y189992D01*
X-631133Y189990D01*
X-631020Y189984D01*
X-630907Y189974D01*
X-630794Y189960D01*
X-630682Y189943D01*
X-630571Y189921D01*
X-630461Y189896D01*
X-630351Y189866D01*
X-630243Y189833D01*
X-630136Y189796D01*
X-630030Y189756D01*
X-629926Y189711D01*
X-629823Y189663D01*
X-629722Y189612D01*
X-629623Y189557D01*
X-629526Y189499D01*
X-629431Y189437D01*
X-629338Y189372D01*
X-629248Y189304D01*
X-629160Y189233D01*
X-629074Y189158D01*
X-628991Y189081D01*
X-628911Y189001D01*
X-628834Y188918D01*
X-628759Y188832D01*
X-628688Y188744D01*
X-628620Y188654D01*
X-628555Y188561D01*
X-628493Y188466D01*
X-628435Y188369D01*
X-628380Y188270D01*
X-628329Y188169D01*
X-628281Y188066D01*
X-628236Y187962D01*
X-628196Y187856D01*
X-628159Y187749D01*
X-628126Y187641D01*
X-628096Y187531D01*
X-628071Y187421D01*
X-628049Y187310D01*
X-628032Y187198D01*
X-628018Y187085D01*
X-628008Y186972D01*
X-628002Y186859D01*
X-628000Y186746D01*
X-628002Y186633D01*
X-628008Y186520D01*
X-628018Y186407D01*
X-628032Y186294D01*
X-628049Y186182D01*
X-628071Y186071D01*
X-628096Y185961D01*
X-628126Y185851D01*
X-628159Y185743D01*
X-628196Y185636D01*
X-628236Y185530D01*
X-628281Y185426D01*
X-628329Y185323D01*
X-628380Y185222D01*
X-628435Y185123D01*
X-628493Y185026D01*
X-628555Y184931D01*
X-628620Y184838D01*
X-628688Y184748D01*
X-628759Y184660D01*
X-628834Y184574D01*
X-628911Y184491D01*
X-628991Y184411D01*
X-629074Y184334D01*
X-629160Y184259D01*
X-629248Y184188D01*
X-629338Y184120D01*
X-629431Y184055D01*
X-629526Y183993D01*
X-629623Y183935D01*
X-629722Y183880D01*
X-629823Y183829D01*
X-629926Y183781D01*
X-630030Y183736D01*
X-630136Y183696D01*
X-630243Y183659D01*
X-630351Y183626D01*
X-630461Y183596D01*
X-630571Y183571D01*
X-630682Y183549D01*
X-630794Y183532D01*
X-630907Y183518D01*
X-631020Y183508D01*
X-631133Y183502D01*
X-631246Y183500D01*
X-631246Y183501D02*
X-634492Y183501D01*
X-630597Y183501D02*
X-628001Y178308D01*
X-623136Y178308D02*
X-619241Y178308D01*
X-619142Y178310D01*
X-619042Y178316D01*
X-618943Y178325D01*
X-618845Y178338D01*
X-618747Y178355D01*
X-618649Y178376D01*
X-618553Y178401D01*
X-618458Y178429D01*
X-618364Y178461D01*
X-618271Y178496D01*
X-618179Y178535D01*
X-618089Y178578D01*
X-618001Y178623D01*
X-617914Y178673D01*
X-617830Y178725D01*
X-617747Y178781D01*
X-617667Y178839D01*
X-617589Y178901D01*
X-617514Y178966D01*
X-617441Y179034D01*
X-617371Y179104D01*
X-617303Y179177D01*
X-617238Y179252D01*
X-617176Y179330D01*
X-617118Y179410D01*
X-617062Y179493D01*
X-617010Y179577D01*
X-616960Y179664D01*
X-616915Y179752D01*
X-616872Y179842D01*
X-616833Y179934D01*
X-616798Y180027D01*
X-616766Y180121D01*
X-616738Y180216D01*
X-616713Y180312D01*
X-616692Y180410D01*
X-616675Y180508D01*
X-616662Y180606D01*
X-616653Y180705D01*
X-616647Y180805D01*
X-616645Y180904D01*
X-616645Y182203D01*
X-616647Y182302D01*
X-616653Y182402D01*
X-616662Y182501D01*
X-616675Y182599D01*
X-616692Y182697D01*
X-616713Y182795D01*
X-616738Y182891D01*
X-616766Y182986D01*
X-616798Y183080D01*
X-616833Y183173D01*
X-616872Y183265D01*
X-616915Y183355D01*
X-616960Y183443D01*
X-617010Y183530D01*
X-617062Y183614D01*
X-617118Y183697D01*
X-617176Y183777D01*
X-617238Y183855D01*
X-617303Y183930D01*
X-617371Y184003D01*
X-617441Y184073D01*
X-617514Y184141D01*
X-617589Y184206D01*
X-617667Y184268D01*
X-617747Y184326D01*
X-617830Y184382D01*
X-617914Y184434D01*
X-618001Y184484D01*
X-618089Y184529D01*
X-618179Y184572D01*
X-618271Y184611D01*
X-618364Y184646D01*
X-618458Y184678D01*
X-618553Y184706D01*
X-618649Y184731D01*
X-618747Y184752D01*
X-618845Y184769D01*
X-618943Y184782D01*
X-619042Y184791D01*
X-619142Y184797D01*
X-619241Y184799D01*
X-623136Y184799D01*
X-623136Y189992D01*
X-616645Y189992D01*
X-507492Y286258D02*
X-495808Y286258D01*
X-507492Y286258D02*
X-507492Y289504D01*
X-507490Y289617D01*
X-507484Y289730D01*
X-507474Y289843D01*
X-507460Y289956D01*
X-507443Y290068D01*
X-507421Y290179D01*
X-507396Y290289D01*
X-507366Y290399D01*
X-507333Y290507D01*
X-507296Y290614D01*
X-507256Y290720D01*
X-507211Y290824D01*
X-507163Y290927D01*
X-507112Y291028D01*
X-507057Y291127D01*
X-506999Y291224D01*
X-506937Y291319D01*
X-506872Y291412D01*
X-506804Y291502D01*
X-506733Y291590D01*
X-506658Y291676D01*
X-506581Y291759D01*
X-506501Y291839D01*
X-506418Y291916D01*
X-506332Y291991D01*
X-506244Y292062D01*
X-506154Y292130D01*
X-506061Y292195D01*
X-505966Y292257D01*
X-505869Y292315D01*
X-505770Y292370D01*
X-505669Y292421D01*
X-505566Y292469D01*
X-505462Y292514D01*
X-505356Y292554D01*
X-505249Y292591D01*
X-505141Y292624D01*
X-505031Y292654D01*
X-504921Y292679D01*
X-504810Y292701D01*
X-504698Y292718D01*
X-504585Y292732D01*
X-504472Y292742D01*
X-504359Y292748D01*
X-504246Y292750D01*
X-504133Y292748D01*
X-504020Y292742D01*
X-503907Y292732D01*
X-503794Y292718D01*
X-503682Y292701D01*
X-503571Y292679D01*
X-503461Y292654D01*
X-503351Y292624D01*
X-503243Y292591D01*
X-503136Y292554D01*
X-503030Y292514D01*
X-502926Y292469D01*
X-502823Y292421D01*
X-502722Y292370D01*
X-502623Y292315D01*
X-502526Y292257D01*
X-502431Y292195D01*
X-502338Y292130D01*
X-502248Y292062D01*
X-502160Y291991D01*
X-502074Y291916D01*
X-501991Y291839D01*
X-501911Y291759D01*
X-501834Y291676D01*
X-501759Y291590D01*
X-501688Y291502D01*
X-501620Y291412D01*
X-501555Y291319D01*
X-501493Y291224D01*
X-501435Y291127D01*
X-501380Y291028D01*
X-501329Y290927D01*
X-501281Y290824D01*
X-501236Y290720D01*
X-501196Y290614D01*
X-501159Y290507D01*
X-501126Y290399D01*
X-501096Y290289D01*
X-501071Y290179D01*
X-501049Y290068D01*
X-501032Y289956D01*
X-501018Y289843D01*
X-501008Y289730D01*
X-501002Y289617D01*
X-501000Y289504D01*
X-501001Y289504D02*
X-501001Y286258D01*
X-501001Y290153D02*
X-495808Y292749D01*
X-502299Y297614D02*
X-502299Y301509D01*
X-502297Y301608D01*
X-502291Y301708D01*
X-502282Y301807D01*
X-502269Y301905D01*
X-502252Y302003D01*
X-502231Y302101D01*
X-502206Y302197D01*
X-502178Y302292D01*
X-502146Y302386D01*
X-502111Y302479D01*
X-502072Y302571D01*
X-502029Y302661D01*
X-501984Y302749D01*
X-501934Y302836D01*
X-501882Y302920D01*
X-501826Y303003D01*
X-501768Y303083D01*
X-501706Y303161D01*
X-501641Y303236D01*
X-501573Y303309D01*
X-501503Y303379D01*
X-501430Y303447D01*
X-501355Y303512D01*
X-501277Y303574D01*
X-501197Y303632D01*
X-501114Y303688D01*
X-501030Y303740D01*
X-500943Y303790D01*
X-500855Y303835D01*
X-500765Y303878D01*
X-500673Y303917D01*
X-500580Y303952D01*
X-500486Y303984D01*
X-500391Y304012D01*
X-500295Y304037D01*
X-500197Y304058D01*
X-500099Y304075D01*
X-500001Y304088D01*
X-499902Y304097D01*
X-499802Y304103D01*
X-499703Y304105D01*
X-499054Y304105D01*
X-499054Y304106D02*
X-498941Y304104D01*
X-498828Y304098D01*
X-498715Y304088D01*
X-498602Y304074D01*
X-498490Y304057D01*
X-498379Y304035D01*
X-498269Y304010D01*
X-498159Y303980D01*
X-498051Y303947D01*
X-497944Y303910D01*
X-497838Y303870D01*
X-497734Y303825D01*
X-497631Y303777D01*
X-497530Y303726D01*
X-497431Y303671D01*
X-497334Y303613D01*
X-497239Y303551D01*
X-497146Y303486D01*
X-497056Y303418D01*
X-496968Y303347D01*
X-496882Y303272D01*
X-496799Y303195D01*
X-496719Y303115D01*
X-496642Y303032D01*
X-496567Y302946D01*
X-496496Y302858D01*
X-496428Y302768D01*
X-496363Y302675D01*
X-496301Y302580D01*
X-496243Y302483D01*
X-496188Y302384D01*
X-496137Y302283D01*
X-496089Y302180D01*
X-496044Y302076D01*
X-496004Y301970D01*
X-495967Y301863D01*
X-495934Y301755D01*
X-495904Y301645D01*
X-495879Y301535D01*
X-495857Y301424D01*
X-495840Y301312D01*
X-495826Y301199D01*
X-495816Y301086D01*
X-495810Y300973D01*
X-495808Y300860D01*
X-495810Y300747D01*
X-495816Y300634D01*
X-495826Y300521D01*
X-495840Y300408D01*
X-495857Y300296D01*
X-495879Y300185D01*
X-495904Y300075D01*
X-495934Y299965D01*
X-495967Y299857D01*
X-496004Y299750D01*
X-496044Y299644D01*
X-496089Y299540D01*
X-496137Y299437D01*
X-496188Y299336D01*
X-496243Y299237D01*
X-496301Y299140D01*
X-496363Y299045D01*
X-496428Y298952D01*
X-496496Y298862D01*
X-496567Y298774D01*
X-496642Y298688D01*
X-496719Y298605D01*
X-496799Y298525D01*
X-496882Y298448D01*
X-496968Y298373D01*
X-497056Y298302D01*
X-497146Y298234D01*
X-497239Y298169D01*
X-497334Y298107D01*
X-497431Y298049D01*
X-497530Y297994D01*
X-497631Y297943D01*
X-497734Y297895D01*
X-497838Y297850D01*
X-497944Y297810D01*
X-498051Y297773D01*
X-498159Y297740D01*
X-498269Y297710D01*
X-498379Y297685D01*
X-498490Y297663D01*
X-498602Y297646D01*
X-498715Y297632D01*
X-498828Y297622D01*
X-498941Y297616D01*
X-499054Y297614D01*
X-502299Y297614D01*
X-502442Y297616D01*
X-502585Y297622D01*
X-502728Y297632D01*
X-502870Y297646D01*
X-503012Y297663D01*
X-503154Y297685D01*
X-503295Y297710D01*
X-503435Y297740D01*
X-503574Y297773D01*
X-503712Y297810D01*
X-503849Y297851D01*
X-503985Y297895D01*
X-504120Y297944D01*
X-504253Y297996D01*
X-504385Y298051D01*
X-504515Y298111D01*
X-504644Y298174D01*
X-504771Y298240D01*
X-504895Y298310D01*
X-505018Y298383D01*
X-505139Y298460D01*
X-505258Y298540D01*
X-505374Y298623D01*
X-505489Y298709D01*
X-505600Y298798D01*
X-505710Y298891D01*
X-505816Y298986D01*
X-505920Y299085D01*
X-506021Y299186D01*
X-506120Y299290D01*
X-506215Y299396D01*
X-506308Y299506D01*
X-506397Y299617D01*
X-506483Y299732D01*
X-506566Y299848D01*
X-506646Y299967D01*
X-506723Y300088D01*
X-506796Y300210D01*
X-506866Y300335D01*
X-506932Y300462D01*
X-506995Y300591D01*
X-507055Y300721D01*
X-507110Y300853D01*
X-507162Y300986D01*
X-507211Y301121D01*
X-507255Y301257D01*
X-507296Y301394D01*
X-507333Y301532D01*
X-507366Y301671D01*
X-507396Y301811D01*
X-507421Y301952D01*
X-507443Y302094D01*
X-507460Y302236D01*
X-507474Y302378D01*
X-507484Y302521D01*
X-507490Y302664D01*
X-507492Y302807D01*
X-621605Y356108D02*
X-621605Y367792D01*
X-618360Y367792D01*
X-618247Y367790D01*
X-618134Y367784D01*
X-618021Y367774D01*
X-617908Y367760D01*
X-617796Y367743D01*
X-617685Y367721D01*
X-617575Y367696D01*
X-617465Y367666D01*
X-617357Y367633D01*
X-617250Y367596D01*
X-617144Y367556D01*
X-617040Y367511D01*
X-616937Y367463D01*
X-616836Y367412D01*
X-616737Y367357D01*
X-616640Y367299D01*
X-616545Y367237D01*
X-616452Y367172D01*
X-616362Y367104D01*
X-616274Y367033D01*
X-616188Y366958D01*
X-616105Y366881D01*
X-616025Y366801D01*
X-615948Y366718D01*
X-615873Y366632D01*
X-615802Y366544D01*
X-615734Y366454D01*
X-615669Y366361D01*
X-615607Y366266D01*
X-615549Y366169D01*
X-615494Y366070D01*
X-615443Y365969D01*
X-615395Y365866D01*
X-615350Y365762D01*
X-615310Y365656D01*
X-615273Y365549D01*
X-615240Y365441D01*
X-615210Y365331D01*
X-615185Y365221D01*
X-615163Y365110D01*
X-615146Y364998D01*
X-615132Y364885D01*
X-615122Y364772D01*
X-615116Y364659D01*
X-615114Y364546D01*
X-615116Y364433D01*
X-615122Y364320D01*
X-615132Y364207D01*
X-615146Y364094D01*
X-615163Y363982D01*
X-615185Y363871D01*
X-615210Y363761D01*
X-615240Y363651D01*
X-615273Y363543D01*
X-615310Y363436D01*
X-615350Y363330D01*
X-615395Y363226D01*
X-615443Y363123D01*
X-615494Y363022D01*
X-615549Y362923D01*
X-615607Y362826D01*
X-615669Y362731D01*
X-615734Y362638D01*
X-615802Y362548D01*
X-615873Y362460D01*
X-615948Y362374D01*
X-616025Y362291D01*
X-616105Y362211D01*
X-616188Y362134D01*
X-616274Y362059D01*
X-616362Y361988D01*
X-616452Y361920D01*
X-616545Y361855D01*
X-616640Y361793D01*
X-616737Y361735D01*
X-616836Y361680D01*
X-616937Y361629D01*
X-617040Y361581D01*
X-617144Y361536D01*
X-617250Y361496D01*
X-617357Y361459D01*
X-617465Y361426D01*
X-617575Y361396D01*
X-617685Y361371D01*
X-617796Y361349D01*
X-617908Y361332D01*
X-618021Y361318D01*
X-618134Y361308D01*
X-618247Y361302D01*
X-618360Y361300D01*
X-618360Y361301D02*
X-621605Y361301D01*
X-617711Y361301D02*
X-615114Y356108D01*
X-610249Y366494D02*
X-610249Y367792D01*
X-603758Y367792D01*
X-607004Y356108D01*
X-654558Y327604D02*
X-666242Y327604D01*
X-666242Y330849D02*
X-666242Y324358D01*
X-663646Y335026D02*
X-666242Y338272D01*
X-654558Y338272D01*
X-654558Y341517D02*
X-654558Y335026D01*
D15*
X-304419Y77437D02*
X-303234Y73881D01*
X-302048Y77437D01*
X-298148Y79215D02*
X-298076Y79213D01*
X-298004Y79207D01*
X-297932Y79197D01*
X-297861Y79184D01*
X-297791Y79166D01*
X-297722Y79145D01*
X-297654Y79120D01*
X-297588Y79092D01*
X-297523Y79060D01*
X-297460Y79024D01*
X-297399Y78985D01*
X-297341Y78943D01*
X-297284Y78898D01*
X-297231Y78849D01*
X-297180Y78798D01*
X-297131Y78745D01*
X-297086Y78688D01*
X-297044Y78630D01*
X-297005Y78569D01*
X-296969Y78506D01*
X-296937Y78441D01*
X-296909Y78375D01*
X-296884Y78307D01*
X-296863Y78238D01*
X-296845Y78168D01*
X-296832Y78097D01*
X-296822Y78025D01*
X-296816Y77953D01*
X-296814Y77881D01*
X-298148Y79215D02*
X-298228Y79213D01*
X-298307Y79208D01*
X-298387Y79198D01*
X-298465Y79185D01*
X-298543Y79169D01*
X-298621Y79149D01*
X-298697Y79125D01*
X-298772Y79097D01*
X-298845Y79067D01*
X-298917Y79033D01*
X-298988Y78995D01*
X-299056Y78954D01*
X-299123Y78910D01*
X-299188Y78864D01*
X-299250Y78814D01*
X-299310Y78761D01*
X-299367Y78705D01*
X-299422Y78647D01*
X-299474Y78587D01*
X-299523Y78524D01*
X-299569Y78459D01*
X-299612Y78392D01*
X-299652Y78322D01*
X-299688Y78252D01*
X-299722Y78179D01*
X-299751Y78105D01*
X-299778Y78030D01*
X-297259Y76844D02*
X-297208Y76895D01*
X-297160Y76949D01*
X-297114Y77005D01*
X-297071Y77064D01*
X-297031Y77124D01*
X-296995Y77187D01*
X-296961Y77251D01*
X-296931Y77317D01*
X-296904Y77384D01*
X-296881Y77453D01*
X-296861Y77522D01*
X-296844Y77593D01*
X-296831Y77664D01*
X-296822Y77736D01*
X-296817Y77809D01*
X-296815Y77881D01*
X-297259Y76844D02*
X-299778Y73881D01*
X-296814Y73881D01*
X-294604Y73881D02*
X-294604Y74177D01*
X-294307Y74177D01*
X-294307Y73881D01*
X-294604Y73881D01*
X-292097Y76548D02*
X-292095Y76673D01*
X-292090Y76797D01*
X-292081Y76921D01*
X-292069Y77045D01*
X-292053Y77169D01*
X-292034Y77292D01*
X-292011Y77415D01*
X-291984Y77537D01*
X-291955Y77658D01*
X-291922Y77778D01*
X-291885Y77897D01*
X-291845Y78015D01*
X-291802Y78132D01*
X-291755Y78247D01*
X-291705Y78362D01*
X-291652Y78474D01*
X-291629Y78535D01*
X-291603Y78594D01*
X-291573Y78652D01*
X-291540Y78707D01*
X-291503Y78761D01*
X-291464Y78812D01*
X-291422Y78861D01*
X-291376Y78907D01*
X-291328Y78951D01*
X-291278Y78992D01*
X-291225Y79029D01*
X-291171Y79064D01*
X-291114Y79095D01*
X-291055Y79123D01*
X-290995Y79147D01*
X-290934Y79168D01*
X-290872Y79185D01*
X-290808Y79198D01*
X-290744Y79207D01*
X-290680Y79213D01*
X-290615Y79215D01*
X-290550Y79213D01*
X-290486Y79207D01*
X-290422Y79198D01*
X-290358Y79185D01*
X-290296Y79168D01*
X-290235Y79147D01*
X-290175Y79123D01*
X-290116Y79095D01*
X-290059Y79064D01*
X-290005Y79029D01*
X-289952Y78992D01*
X-289902Y78951D01*
X-289854Y78907D01*
X-289808Y78861D01*
X-289766Y78812D01*
X-289727Y78761D01*
X-289690Y78707D01*
X-289657Y78652D01*
X-289627Y78594D01*
X-289601Y78535D01*
X-289578Y78474D01*
X-289525Y78362D01*
X-289475Y78247D01*
X-289428Y78132D01*
X-289385Y78015D01*
X-289345Y77897D01*
X-289308Y77778D01*
X-289275Y77658D01*
X-289246Y77537D01*
X-289219Y77415D01*
X-289196Y77292D01*
X-289177Y77169D01*
X-289161Y77045D01*
X-289149Y76921D01*
X-289140Y76797D01*
X-289135Y76673D01*
X-289133Y76548D01*
X-292097Y76548D02*
X-292095Y76423D01*
X-292090Y76299D01*
X-292081Y76175D01*
X-292069Y76051D01*
X-292053Y75927D01*
X-292034Y75804D01*
X-292011Y75681D01*
X-291984Y75560D01*
X-291955Y75439D01*
X-291922Y75318D01*
X-291885Y75199D01*
X-291845Y75081D01*
X-291802Y74964D01*
X-291755Y74849D01*
X-291705Y74734D01*
X-291652Y74622D01*
X-291629Y74561D01*
X-291603Y74502D01*
X-291573Y74444D01*
X-291540Y74389D01*
X-291503Y74335D01*
X-291464Y74284D01*
X-291422Y74235D01*
X-291376Y74189D01*
X-291328Y74145D01*
X-291278Y74104D01*
X-291225Y74067D01*
X-291171Y74032D01*
X-291114Y74001D01*
X-291055Y73973D01*
X-290995Y73949D01*
X-290934Y73928D01*
X-290872Y73911D01*
X-290808Y73898D01*
X-290744Y73889D01*
X-290680Y73883D01*
X-290615Y73881D01*
X-289578Y74622D02*
X-289525Y74734D01*
X-289475Y74849D01*
X-289428Y74964D01*
X-289385Y75081D01*
X-289345Y75199D01*
X-289308Y75318D01*
X-289275Y75439D01*
X-289246Y75560D01*
X-289219Y75681D01*
X-289196Y75804D01*
X-289177Y75927D01*
X-289161Y76051D01*
X-289149Y76175D01*
X-289140Y76299D01*
X-289135Y76423D01*
X-289133Y76548D01*
X-289578Y74622D02*
X-289601Y74561D01*
X-289627Y74502D01*
X-289657Y74444D01*
X-289690Y74389D01*
X-289727Y74335D01*
X-289766Y74284D01*
X-289808Y74235D01*
X-289854Y74189D01*
X-289902Y74145D01*
X-289952Y74104D01*
X-290005Y74067D01*
X-290059Y74032D01*
X-290116Y74001D01*
X-290175Y73973D01*
X-290235Y73949D01*
X-290296Y73928D01*
X-290358Y73911D01*
X-290422Y73898D01*
X-290486Y73889D01*
X-290550Y73883D01*
X-290615Y73881D01*
X-291800Y75066D02*
X-289430Y78030D01*
X-1046419Y618833D02*
X-1046419Y624167D01*
X-1044048Y624167D01*
X-1044048Y621796D02*
X-1046419Y621796D01*
X-1041633Y624167D02*
X-1041633Y618833D01*
X-1041633Y624167D02*
X-1040151Y624167D01*
X-1040075Y624165D01*
X-1039999Y624159D01*
X-1039923Y624149D01*
X-1039848Y624136D01*
X-1039774Y624118D01*
X-1039700Y624097D01*
X-1039628Y624072D01*
X-1039558Y624043D01*
X-1039488Y624011D01*
X-1039421Y623975D01*
X-1039356Y623935D01*
X-1039292Y623893D01*
X-1039231Y623847D01*
X-1039173Y623798D01*
X-1039117Y623746D01*
X-1039063Y623692D01*
X-1039013Y623634D01*
X-1038966Y623575D01*
X-1038921Y623512D01*
X-1038880Y623448D01*
X-1038843Y623382D01*
X-1038809Y623313D01*
X-1038778Y623243D01*
X-1038751Y623172D01*
X-1038728Y623099D01*
X-1038709Y623025D01*
X-1038693Y622951D01*
X-1038681Y622875D01*
X-1038673Y622799D01*
X-1038669Y622723D01*
X-1038669Y622647D01*
X-1038673Y622571D01*
X-1038681Y622495D01*
X-1038693Y622419D01*
X-1038709Y622345D01*
X-1038728Y622271D01*
X-1038751Y622198D01*
X-1038778Y622127D01*
X-1038809Y622057D01*
X-1038843Y621988D01*
X-1038880Y621922D01*
X-1038921Y621858D01*
X-1038966Y621795D01*
X-1039013Y621736D01*
X-1039063Y621678D01*
X-1039117Y621624D01*
X-1039173Y621572D01*
X-1039231Y621523D01*
X-1039292Y621477D01*
X-1039356Y621435D01*
X-1039421Y621395D01*
X-1039488Y621359D01*
X-1039558Y621327D01*
X-1039628Y621298D01*
X-1039700Y621273D01*
X-1039774Y621252D01*
X-1039848Y621234D01*
X-1039923Y621221D01*
X-1039999Y621211D01*
X-1040075Y621205D01*
X-1040151Y621203D01*
X-1040151Y621204D02*
X-1041633Y621204D01*
X-1039855Y621204D02*
X-1038669Y618833D01*
X-1036192Y620018D02*
X-1035006Y624167D01*
X-1036192Y620018D02*
X-1033228Y620018D01*
X-1034117Y618833D02*
X-1034117Y621204D01*
D12*
X-642435Y236298D02*
X-642433Y236361D01*
X-642427Y236423D01*
X-642417Y236485D01*
X-642404Y236547D01*
X-642386Y236607D01*
X-642365Y236666D01*
X-642340Y236724D01*
X-642311Y236780D01*
X-642279Y236834D01*
X-642244Y236886D01*
X-642206Y236935D01*
X-642164Y236983D01*
X-642120Y237027D01*
X-642072Y237069D01*
X-642023Y237107D01*
X-641971Y237142D01*
X-641917Y237174D01*
X-641861Y237203D01*
X-641803Y237228D01*
X-641744Y237249D01*
X-641684Y237267D01*
X-641622Y237280D01*
X-641560Y237290D01*
X-641498Y237296D01*
X-641435Y237298D01*
X-641372Y237296D01*
X-641310Y237290D01*
X-641248Y237280D01*
X-641186Y237267D01*
X-641126Y237249D01*
X-641067Y237228D01*
X-641009Y237203D01*
X-640953Y237174D01*
X-640899Y237142D01*
X-640847Y237107D01*
X-640798Y237069D01*
X-640750Y237027D01*
X-640706Y236983D01*
X-640664Y236935D01*
X-640626Y236886D01*
X-640591Y236834D01*
X-640559Y236780D01*
X-640530Y236724D01*
X-640505Y236666D01*
X-640484Y236607D01*
X-640466Y236547D01*
X-640453Y236485D01*
X-640443Y236423D01*
X-640437Y236361D01*
X-640435Y236298D01*
X-640437Y236235D01*
X-640443Y236173D01*
X-640453Y236111D01*
X-640466Y236049D01*
X-640484Y235989D01*
X-640505Y235930D01*
X-640530Y235872D01*
X-640559Y235816D01*
X-640591Y235762D01*
X-640626Y235710D01*
X-640664Y235661D01*
X-640706Y235613D01*
X-640750Y235569D01*
X-640798Y235527D01*
X-640847Y235489D01*
X-640899Y235454D01*
X-640953Y235422D01*
X-641009Y235393D01*
X-641067Y235368D01*
X-641126Y235347D01*
X-641186Y235329D01*
X-641248Y235316D01*
X-641310Y235306D01*
X-641372Y235300D01*
X-641435Y235298D01*
X-641498Y235300D01*
X-641560Y235306D01*
X-641622Y235316D01*
X-641684Y235329D01*
X-641744Y235347D01*
X-641803Y235368D01*
X-641861Y235393D01*
X-641917Y235422D01*
X-641971Y235454D01*
X-642023Y235489D01*
X-642072Y235527D01*
X-642120Y235569D01*
X-642164Y235613D01*
X-642206Y235661D01*
X-642244Y235710D01*
X-642279Y235762D01*
X-642311Y235816D01*
X-642340Y235872D01*
X-642365Y235930D01*
X-642386Y235989D01*
X-642404Y236049D01*
X-642417Y236111D01*
X-642427Y236173D01*
X-642433Y236235D01*
X-642435Y236298D01*
D11*
X-636000Y238600D02*
X-636000Y218600D01*
X-608600Y218600D02*
X-608600Y238600D01*
D10*
X-647192Y252674D02*
X-647192Y261112D01*
X-647192Y252674D02*
X-647190Y252561D01*
X-647184Y252448D01*
X-647174Y252335D01*
X-647160Y252222D01*
X-647143Y252110D01*
X-647121Y251999D01*
X-647096Y251889D01*
X-647066Y251779D01*
X-647033Y251671D01*
X-646996Y251564D01*
X-646956Y251458D01*
X-646911Y251354D01*
X-646863Y251251D01*
X-646812Y251150D01*
X-646757Y251051D01*
X-646699Y250954D01*
X-646637Y250859D01*
X-646572Y250766D01*
X-646504Y250676D01*
X-646433Y250588D01*
X-646358Y250502D01*
X-646281Y250419D01*
X-646201Y250339D01*
X-646118Y250262D01*
X-646032Y250187D01*
X-645944Y250116D01*
X-645854Y250048D01*
X-645761Y249983D01*
X-645666Y249921D01*
X-645569Y249863D01*
X-645470Y249808D01*
X-645369Y249757D01*
X-645266Y249709D01*
X-645162Y249664D01*
X-645056Y249624D01*
X-644949Y249587D01*
X-644841Y249554D01*
X-644731Y249524D01*
X-644621Y249499D01*
X-644510Y249477D01*
X-644398Y249460D01*
X-644285Y249446D01*
X-644172Y249436D01*
X-644059Y249430D01*
X-643946Y249428D01*
X-643833Y249430D01*
X-643720Y249436D01*
X-643607Y249446D01*
X-643494Y249460D01*
X-643382Y249477D01*
X-643271Y249499D01*
X-643161Y249524D01*
X-643051Y249554D01*
X-642943Y249587D01*
X-642836Y249624D01*
X-642730Y249664D01*
X-642626Y249709D01*
X-642523Y249757D01*
X-642422Y249808D01*
X-642323Y249863D01*
X-642226Y249921D01*
X-642131Y249983D01*
X-642038Y250048D01*
X-641948Y250116D01*
X-641860Y250187D01*
X-641774Y250262D01*
X-641691Y250339D01*
X-641611Y250419D01*
X-641534Y250502D01*
X-641459Y250588D01*
X-641388Y250676D01*
X-641320Y250766D01*
X-641255Y250859D01*
X-641193Y250954D01*
X-641135Y251051D01*
X-641080Y251150D01*
X-641029Y251251D01*
X-640981Y251354D01*
X-640936Y251458D01*
X-640896Y251564D01*
X-640859Y251671D01*
X-640826Y251779D01*
X-640796Y251889D01*
X-640771Y251999D01*
X-640749Y252110D01*
X-640732Y252222D01*
X-640718Y252335D01*
X-640708Y252448D01*
X-640702Y252561D01*
X-640700Y252674D01*
X-640701Y252674D02*
X-640701Y261112D01*
X-635381Y258516D02*
X-632136Y261112D01*
X-632136Y249428D01*
X-635381Y249428D02*
X-628890Y249428D01*
M02*
