G04 EAGLE Gerber RS-274X export*
G75*
%MOMM*%
%FSLAX34Y34*%
%LPD*%
%INSoldermask Top*%
%IPPOS*%
%AMOC8*
5,1,8,0,0,1.08239X$1,22.5*%
G01*
%ADD10R,1.703200X1.503200*%
%ADD11R,1.549400X0.584200*%
%ADD12R,2.103200X2.103200*%
%ADD13C,0.753200*%
%ADD14R,1.403200X1.403200*%
%ADD15R,1.503200X1.703200*%
%ADD16C,0.757725*%
%ADD17C,0.885663*%
%ADD18R,1.803200X2.203200*%
%ADD19R,1.603200X1.203200*%
%ADD20C,1.203200*%
%ADD21R,1.053200X1.153200*%
%ADD22R,1.053200X1.353200*%
%ADD23R,1.173200X1.353200*%
%ADD24R,1.173200X1.153200*%


D10*
X-558800Y219100D03*
X-558800Y238100D03*
D11*
X-433150Y164800D03*
X-433150Y171300D03*
X-433150Y177800D03*
X-433150Y184300D03*
X-433150Y190800D03*
D12*
X-406400Y138300D03*
X-406400Y165800D03*
X-406400Y189800D03*
X-406400Y217300D03*
D13*
X-427900Y157800D03*
X-427900Y197800D03*
D14*
X-662600Y292100D03*
X-683600Y292100D03*
D15*
X-549300Y266700D03*
X-568300Y266700D03*
D16*
X-445028Y296272D02*
X-438572Y296272D01*
X-445028Y296272D02*
X-445028Y302728D01*
X-438572Y302728D01*
X-438572Y296272D01*
X-425028Y296272D02*
X-418572Y296272D01*
X-425028Y296272D02*
X-425028Y302728D01*
X-418572Y302728D01*
X-418572Y296272D01*
D17*
X-427212Y327912D02*
X-436388Y327912D01*
X-436388Y336088D01*
X-427212Y336088D01*
X-427212Y327912D01*
D10*
X-685800Y238100D03*
X-685800Y219100D03*
D18*
X-519400Y317500D03*
X-547400Y317500D03*
X-636300Y165100D03*
X-608300Y165100D03*
D10*
X-482600Y282600D03*
X-482600Y301600D03*
D15*
X-600100Y381000D03*
X-619100Y381000D03*
D19*
X-646000Y342900D03*
X-624000Y352400D03*
X-624000Y333400D03*
D20*
X-1031800Y98500D03*
X-269800Y606500D03*
D21*
X-616000Y235850D03*
D22*
X-616000Y222350D03*
D23*
X-628000Y222350D03*
D24*
X-628000Y235850D03*
M02*
